<?xml version="1.0" standalone="no"?>
<!DOCTYPE svg PUBLIC "-//W3C//DTD SVG 20010904//EN"
 "http://www.w3.org/TR/2001/REC-SVG-20010904/DTD/svg10.dtd">
<svg version="1.0" xmlns="http://www.w3.org/2000/svg"
 width="283.000000pt" height="283.000000pt" viewBox="0 0 283.000000 283.000000"
 preserveAspectRatio="xMidYMid meet">
<metadata>
Created by potrace 1.11, written by Peter Selinger 2001-2013
</metadata>
<g transform="translate(0.000000,283.000000) scale(0.100000,-0.100000)"
fill="#000000" stroke="none">
<path d="M701 2814 c-13 -9 -29 -32 -37 -50 -8 -19 -19 -34 -25 -34 -6 0 -9
-7 -5 -15 3 -10 -1 -15 -12 -15 -10 0 -28 -7 -40 -16 -13 -9 -26 -13 -29 -10
-12 12 -53 -58 -53 -90 0 -25 5 -34 22 -40 30 -9 118 -11 118 -1 0 4 7 7 16 7
8 0 13 4 9 9 -3 5 -1 12 5 16 5 3 10 21 10 40 0 19 5 37 10 40 6 3 10 1 10 -4
0 -7 22 -11 53 -11 42 0 58 5 79 25 36 33 45 83 23 129 -17 35 -19 36 -74 36
-36 0 -65 -6 -80 -16z"/>
<path d="M1123 2823 c9 -2 25 -2 35 0 9 3 1 5 -18 5 -19 0 -27 -2 -17 -5z"/>
<path d="M1465 2803 c11 -45 34 -74 73 -90 66 -27 144 15 158 85 l7 32 -123 0
-122 0 7 -27z"/>
<path d="M2267 2795 c-90 -99 -97 -111 -97 -163 0 -37 6 -50 34 -78 28 -28 41
-34 78 -34 53 0 101 28 124 72 9 18 25 44 35 58 16 21 17 31 8 65 -6 21 -26
54 -44 72 -43 43 -104 47 -138 8z"/>
<path d="M1084 2740 c-36 -14 -74 -68 -74 -106 0 -47 32 -106 67 -124 38 -20
54 -36 51 -52 -2 -7 7 -14 20 -16 22 -3 58 -55 48 -70 -2 -4 0 -30 6 -57 5
-28 10 -56 11 -62 0 -15 13 -17 21 -4 7 11 42 7 81 -10 40 -16 135 -28 135
-16 0 5 16 -5 35 -22 31 -27 66 -38 100 -31 5 1 18 2 27 3 10 1 18 5 18 10 0
4 4 6 9 3 5 -4 19 9 30 27 17 27 20 46 17 104 -2 39 -6 76 -11 82 -4 7 -5 15
-2 18 8 7 -13 63 -24 63 -5 0 -9 7 -9 15 0 9 -7 18 -15 21 -8 4 -15 12 -15 20
0 8 -9 14 -20 14 -11 0 -20 4 -20 9 0 29 -153 5 -212 -34 -21 -14 -43 -25 -49
-25 -6 0 -22 -9 -36 -20 -24 -19 -27 -19 -38 -3 -14 19 -14 23 6 96 11 40 11
54 -1 89 -24 69 -94 103 -156 78z"/>
<path d="M1794 2666 c-30 -30 -34 -41 -34 -84 0 -34 6 -57 20 -74 44 -57 129
-61 182 -8 23 24 28 37 28 80 0 46 -4 56 -34 86 -29 29 -41 34 -81 34 -40 0
-52 -5 -81 -34z"/>
<path d="M2555 2603 c-29 -7 -73 -51 -79 -82 -22 -94 -29 -108 -62 -120 -18
-7 -44 -25 -58 -42 -23 -27 -25 -38 -25 -112 1 -83 18 -144 45 -154 18 -7 8
-27 -32 -67 -19 -19 -37 -47 -40 -63 -5 -27 -8 -28 -64 -28 -48 0 -63 -4 -85
-25 -61 -56 -66 -128 -14 -180 32 -31 65 -39 119 -28 42 8 100 67 100 102 0
22 4 24 48 24 27 0 62 7 79 16 l31 16 21 -36 c25 -42 80 -68 123 -59 36 8 98
61 98 84 1 12 4 10 13 -7 7 -12 23 -29 35 -38 l22 -15 0 112 0 111 -25 -16
c-24 -16 -25 -15 -25 2 0 10 11 29 25 42 l25 23 0 244 c0 162 -3 243 -10 243
-6 0 -22 -11 -36 -25 -23 -23 -27 -24 -47 -10 -12 8 -33 28 -47 44 -16 21 -28
27 -36 21 -7 -7 -17 -3 -29 10 -18 20 -31 22 -70 13z"/>
<path d="M741 2550 c-13 -11 -28 -20 -35 -20 -20 0 -66 -81 -66 -116 0 -21 -2
-22 -30 -13 -16 6 -30 15 -30 20 0 5 -11 9 -24 9 -31 0 -57 10 -51 19 5 9 -76
-2 -92 -12 -6 -4 -20 -27 -32 -53 -19 -40 -20 -51 -10 -82 6 -21 15 -41 19
-46 5 -5 4 -19 -2 -32 -10 -21 -15 -22 -59 -17 -33 4 -49 2 -49 -6 0 -6 -9
-11 -20 -11 -13 0 -18 -5 -14 -15 4 -8 -2 -27 -12 -43 -39 -58 -43 -69 -33
-114 13 -55 -8 -104 -63 -148 -33 -27 -45 -31 -74 -25 -57 10 -64 -3 -64 -116
0 -72 3 -99 13 -99 16 0 52 -40 61 -67 9 -29 -1 -63 -20 -63 -8 0 -14 -4 -14
-9 0 -5 -8 -8 -17 -7 -17 1 -18 -17 -21 -231 -2 -206 -1 -233 13 -233 9 0 29
-10 45 -21 22 -17 37 -20 67 -16 50 8 73 -5 56 -33 -17 -25 -16 -30 1 -30 13
0 13 -4 1 -27 -8 -16 -19 -29 -25 -29 -5 -1 -14 -2 -20 -3 -5 0 -10 -8 -10
-16 0 -8 -11 -22 -25 -31 -14 -9 -23 -19 -20 -23 2 -4 -4 -21 -14 -37 -43 -71
-34 -135 29 -201 23 -24 44 -43 47 -43 4 0 15 -8 25 -17 13 -11 22 -14 26 -6
4 6 15 7 27 2 17 -6 17 -8 3 -8 -22 -1 -24 -17 -3 -25 8 -3 21 1 29 9 8 8 21
15 29 15 7 0 14 6 15 13 0 6 12 50 26 97 15 47 24 90 22 97 -3 6 -15 13 -27
15 -22 3 -23 3 -3 22 10 11 19 23 19 28 0 8 6 9 23 7 4 -1 14 -1 24 0 9 1 22
-7 30 -17 17 -24 70 -52 100 -52 13 0 36 9 52 19 23 15 34 17 52 9 27 -13 34
-58 9 -58 -8 0 -15 -4 -15 -10 0 -16 -41 -33 -53 -21 -7 7 -17 -3 -33 -32 -20
-39 -21 -46 -10 -92 10 -39 19 -53 42 -64 16 -8 32 -19 36 -25 6 -8 8 -8 8 1
0 6 9 9 21 6 27 -7 78 47 81 85 0 15 2 33 2 40 1 7 7 17 15 21 7 5 11 13 8 19
-4 5 3 19 16 30 70 65 117 119 117 134 0 26 18 31 45 14 14 -9 25 -14 25 -12
0 3 13 1 28 -4 33 -9 78 7 105 38 30 33 33 93 7 146 -12 25 -26 44 -31 40 -5
-3 -9 0 -9 6 0 7 -12 9 -32 6 -90 -15 -116 -14 -137 5 -12 11 -21 17 -21 13 0
-3 -7 -1 -15 6 -11 9 -12 16 -5 25 14 17 4 23 -60 40 -37 10 -50 10 -54 1 -3
-7 -5 -6 -5 3 -1 7 -13 27 -27 44 l-27 32 6 -45 c7 -57 15 -77 33 -84 22 -8
17 -55 -13 -136 -4 -8 -7 -19 -7 -25 -6 -46 -36 -75 -36 -34 0 15 -5 19 -19
14 -22 -7 -44 16 -35 38 4 10 -4 26 -22 42 -26 25 -27 26 -8 40 10 8 25 15 31
15 7 0 26 18 42 40 25 35 28 44 21 82 -5 23 -17 49 -27 58 -11 8 -18 20 -16
26 2 7 -3 14 -12 18 -11 4 -14 2 -9 -7 6 -9 4 -9 -8 1 -10 8 -29 10 -56 6 -35
-5 -41 -3 -47 15 -3 11 -2 36 3 55 8 29 7 38 -8 51 -11 10 -27 14 -37 11 -29
-9 -87 55 -78 85 4 12 8 43 9 68 2 51 -18 75 -78 97 -17 6 -31 18 -30 25 1 11
-9 14 -35 11 l-36 -3 35 23 c19 12 41 30 48 40 7 10 20 18 28 18 8 0 14 4 14
8 0 13 70 92 81 92 6 0 7 -4 4 -10 -3 -5 -1 -10 4 -10 6 0 11 -7 11 -15 0 -8
-6 -15 -13 -15 -7 0 -23 -9 -34 -20 -21 -19 -21 -20 -3 -57 10 -21 16 -41 13
-45 -2 -5 3 -8 12 -8 8 0 20 -11 26 -24 12 -25 47 -46 70 -42 8 2 27 8 42 14
49 20 65 15 87 -28 11 -22 25 -40 30 -40 6 0 10 -6 10 -13 0 -7 15 -31 34 -53
26 -30 33 -46 29 -66 -4 -21 0 -28 18 -33 18 -6 29 -1 51 24 l28 31 57 -31
c32 -17 73 -42 92 -55 19 -13 44 -24 56 -24 37 0 39 -37 3 -81 -42 -52 -48
-112 -16 -159 29 -42 82 -63 127 -50 l31 9 0 -46 c0 -38 5 -50 34 -79 28 -28
41 -34 78 -34 94 0 149 71 125 161 -6 24 -4 27 21 31 15 3 34 8 42 12 12 5 15
-4 15 -48 0 -45 5 -60 26 -83 15 -15 30 -42 33 -59 9 -42 60 -92 101 -100 49
-9 105 21 128 68 15 31 16 44 7 77 -6 22 -21 53 -34 68 -13 15 -25 40 -28 56
-5 25 -3 27 29 27 49 0 92 26 109 65 18 44 18 59 -2 101 -20 42 -59 64 -114
64 l-42 0 7 33 c4 17 8 33 9 34 5 6 95 -23 118 -39 39 -27 79 -32 120 -15 49
21 72 58 75 126 1 31 5 79 9 107 5 47 3 54 -25 87 -38 43 -85 54 -136 33 -19
-8 -43 -28 -52 -43 -13 -23 -23 -29 -53 -29 -61 -2 -117 -59 -113 -117 1 -13
-3 -17 -13 -13 -9 3 -27 9 -40 12 -22 6 -24 12 -24 59 0 30 5 57 11 60 6 4 14
16 18 27 4 11 30 29 61 41 29 12 62 34 73 49 24 32 26 98 4 131 -15 23 -14 25
10 38 33 18 53 59 53 110 0 33 -6 47 -34 75 -36 36 -78 44 -130 24 -56 -21
-82 -110 -51 -170 9 -17 11 -30 6 -30 -5 0 -13 9 -16 21 -15 45 -107 74 -156
49 -15 -8 -19 -7 -19 4 0 9 -14 31 -32 50 -27 30 -32 42 -29 75 3 50 -22 95
-65 116 -70 33 -127 7 -163 -76 -25 -57 -29 -66 -61 -114 -11 -16 -20 -44 -20
-60 0 -32 -33 -64 -46 -44 -4 7 -14 4 -27 -8 -11 -10 -17 -12 -13 -5 11 19
-25 0 -44 -22 -7 -9 -17 -16 -22 -16 -11 0 -65 38 -93 65 -11 12 -32 22 -47
23 -24 1 -28 -2 -28 -24 0 -14 -4 -23 -10 -19 -5 3 -10 18 -10 33 0 20 -3 23
-9 13 -8 -12 -11 -10 -16 10 -6 24 -33 41 -87 53 -16 4 -28 11 -28 16 0 6 -8
18 -18 28 -11 11 -34 41 -52 68 -19 27 -38 52 -44 56 -16 11 -5 16 47 21 39 5
52 2 68 -14 10 -10 19 -26 19 -34 0 -8 3 -14 8 -13 14 4 50 -26 46 -37 -3 -7
3 -18 12 -26 10 -8 15 -9 12 -4 -4 6 -2 17 3 25 7 13 10 13 18 1 13 -20 64 -5
95 29 25 29 39 99 16 85 -5 -3 -7 0 -5 7 3 8 -5 25 -17 38 -26 28 -32 51 -12
43 8 -3 14 0 14 6 0 5 18 15 40 21 22 6 40 14 40 19 0 4 16 16 35 27 27 14 35
25 35 47 0 59 -81 167 -115 153 -9 -3 -13 -2 -10 4 10 16 -8 11 -34 -10z m569
-776 c0 -8 -4 -12 -10 -9 -5 3 -10 13 -10 21 0 8 5 12 10 9 6 -3 10 -13 10
-21z m-164 -323 c-4 -6 -11 -11 -15 -11 -11 0 -31 47 -23 54 9 10 45 -31 38
-43z m-970 -169 c2 -45 8 -69 23 -89 25 -31 21 -38 -14 -29 -21 5 -24 10 -16
20 9 10 6 17 -12 29 -19 12 -25 27 -29 68 -3 29 -3 60 0 71 4 17 7 17 25 5 17
-11 22 -26 23 -75z m1271 11 c-3 -10 -5 -4 -5 12 0 17 2 24 5 18 2 -7 2 -21 0
-30z m-173 -127 c-4 -25 -2 -52 5 -65 11 -19 9 -21 -13 -21 -13 0 -30 -2 -38
-5 -10 -4 -13 10 -13 59 1 73 16 102 46 86 15 -9 18 -18 13 -54z m-815 -94 c7
-23 6 -34 -5 -43 -18 -15 -18 -29 0 -29 13 0 26 -19 32 -48 1 -7 -5 -16 -14
-19 -9 -2 -27 -9 -39 -15 -17 -8 -28 -6 -51 11 -17 11 -34 21 -38 21 -4 0 -15
6 -23 14 -23 21 -16 106 8 106 9 0 39 8 66 18 28 11 51 18 53 17 1 -1 7 -16
11 -33z"/>
<path d="M1878 2255 c-15 -9 -35 -29 -43 -45 -46 -90 20 -190 118 -177 100 14
137 136 62 207 -30 29 -100 36 -137 15z"/>
<path d="M2094 1426 c-84 -38 -98 -131 -29 -194 34 -31 41 -34 86 -30 39 4 52
1 66 -14 16 -18 15 -18 -53 -12 -66 6 -71 5 -102 -21 -56 -47 -61 -125 -11
-175 16 -15 44 -32 61 -36 18 -3 43 -13 55 -21 30 -20 95 -18 128 3 31 20 55
63 55 98 0 18 8 27 32 35 17 6 40 18 49 27 14 13 31 15 81 10 136 -14 146 -13
179 20 46 46 49 97 10 151 -22 31 -40 44 -65 48 -28 6 -36 13 -41 36 -9 42
-68 89 -111 89 -38 0 -83 -19 -103 -44 -10 -12 -18 -13 -33 -5 -11 6 -41 9
-66 8 -32 -3 -55 2 -73 14 -36 24 -79 29 -115 13z"/>
<path d="M2817 1240 c-4 -16 -2 -40 3 -52 7 -18 9 -12 9 30 1 58 -4 67 -12 22z"/>
<path d="M740 1229 c0 -35 25 -50 71 -43 49 8 55 19 26 48 -19 19 -35 25 -61
24 -32 -1 -36 -4 -36 -29z"/>
<path d="M2594 996 c-28 -28 -34 -42 -34 -75 0 -57 22 -95 66 -116 75 -35 160
10 171 92 10 77 -43 133 -128 133 -33 0 -47 -6 -75 -34z"/>
<path d="M2110 850 c-47 -14 -113 -55 -132 -81 -11 -15 -19 -43 -20 -66 -1
-94 93 -144 182 -98 26 13 38 15 57 6 92 -42 196 31 178 125 -8 47 -65 94
-114 94 -21 0 -55 7 -74 15 -40 17 -41 17 -77 5z"/>
<path d="M1245 779 c-11 -6 -30 -24 -42 -41 -24 -34 -20 -56 23 -133 20 -36
26 -40 67 -43 39 -3 49 1 82 32 31 30 36 40 32 68 -7 51 -27 86 -54 93 -13 3
-21 10 -18 15 3 5 0 7 -8 4 -8 -3 -18 -1 -22 5 -8 13 -33 13 -60 0z"/>
<path d="M1489 637 c-44 -30 -61 -63 -55 -110 8 -72 91 -124 154 -98 102 42
106 175 7 217 -47 19 -66 18 -106 -9z"/>
<path d="M933 556 c-17 -14 -36 -40 -43 -58 -6 -18 -18 -45 -26 -60 -16 -30
-18 -76 -4 -98 5 -9 5 -19 -2 -27 -8 -10 -7 -13 3 -13 10 0 10 -3 1 -12 -7 -7
-8 -17 -1 -30 10 -19 39 -25 39 -7 0 5 6 7 12 3 37 -23 106 -6 135 34 39 54
73 134 73 174 0 32 -7 47 -34 74 -19 19 -44 34 -57 34 -13 0 -33 3 -45 6 -14
4 -31 -3 -51 -20z"/>
<path d="M1274 496 c-43 -19 -74 -62 -74 -103 0 -93 89 -150 170 -108 42 22
60 53 60 105 0 53 -22 84 -76 106 -40 17 -41 17 -80 0z"/>
<path d="M2103 465 c-80 -35 -94 -133 -27 -194 33 -30 41 -33 81 -28 84 9 131
85 100 160 -26 60 -95 88 -154 62z"/>
<path d="M27 453 c-27 -4 -27 -5 -27 -84 0 -69 2 -79 18 -79 10 0 27 -6 38
-14 29 -21 80 5 89 45 11 50 -14 127 -36 113 -5 -3 -8 0 -7 7 3 13 -31 18 -75
12z"/>
<path d="M220 379 c0 -5 5 -7 10 -4 6 3 10 8 10 11 0 2 -4 4 -10 4 -5 0 -10
-5 -10 -11z"/>
<path d="M1680 298 c-58 -40 -75 -99 -45 -158 48 -92 177 -95 220 -4 22 48 13
96 -28 140 -44 46 -98 55 -147 22z"/>
<path d="M738 284 c-3 -3 -23 -7 -43 -9 -21 -2 -42 -8 -48 -14 -6 -6 -20 -11
-31 -11 -30 -1 -61 -29 -85 -77 -18 -35 -26 -42 -61 -48 -42 -7 -67 -34 -49
-52 7 -7 6 -20 -5 -42 l-17 -31 287 0 287 0 -6 42 c-4 33 -15 49 -49 80 -24
21 -38 38 -33 38 6 0 2 5 -7 11 -10 5 -18 19 -18 29 0 11 -4 20 -10 20 -5 0
-10 7 -10 16 0 8 -4 12 -10 9 -5 -3 -10 -1 -10 4 0 6 -6 11 -14 11 -8 0 -16 7
-20 15 -5 15 -37 21 -48 9z"/>
<path d="M1343 183 c-13 -2 -36 -18 -53 -34 -25 -25 -30 -39 -30 -78 0 -26 5
-52 12 -59 8 -8 46 -12 105 -12 81 0 94 2 103 19 17 33 12 86 -12 116 -19 25
-76 57 -95 54 -4 -1 -18 -4 -30 -6z"/>
<path d="M2823 140 c0 -30 2 -43 4 -28 2 16 2 40 0 56 -2 15 -4 2 -4 -28z"/>
</g>
</svg>
